<svg width="213" height="33" viewBox="0 0 213 33" fill="none" xmlns="http://www.w3.org/2000/svg">
<path d="M59.424 12.912C59.536 12.624 59.696 12.408 59.904 12.264C60.128 12.12 60.368 12.048 60.624 12.048C60.992 12.048 61.32 12.176 61.608 12.432C61.912 12.672 62.064 12.976 62.064 13.344C62.064 13.552 62.024 13.736 61.944 13.896L57.984 23.184C57.856 23.488 57.656 23.72 57.384 23.88C57.128 24.04 56.84 24.12 56.52 24.12C56.216 24.12 55.928 24.04 55.656 23.88C55.4 23.72 55.208 23.488 55.08 23.184L52.224 16.32L49.464 23.184C49.336 23.488 49.136 23.72 48.864 23.88C48.608 24.04 48.32 24.12 48 24.12C47.696 24.12 47.408 24.04 47.136 23.88C46.864 23.72 46.664 23.488 46.536 23.184L42.6 13.896C42.52 13.688 42.48 13.512 42.48 13.368C42.48 13 42.64 12.688 42.96 12.432C43.28 12.16 43.632 12.024 44.016 12.024C44.288 12.024 44.536 12.096 44.76 12.24C44.984 12.384 45.152 12.6 45.264 12.888L48.096 20.208L51 12.96C51.128 12.656 51.312 12.432 51.552 12.288C51.792 12.128 52.056 12.048 52.344 12.048C52.632 12.048 52.896 12.128 53.136 12.288C53.376 12.432 53.56 12.656 53.688 12.96L56.616 20.232L59.424 12.912ZM73.2152 20.784C73.4872 20.784 73.7032 20.888 73.8632 21.096C74.0392 21.304 74.1272 21.584 74.1272 21.936C74.1272 22.432 73.8312 22.848 73.2392 23.184C72.6952 23.488 72.0792 23.736 71.3912 23.928C70.7032 24.104 70.0472 24.192 69.4232 24.192C67.5352 24.192 66.0392 23.648 64.9352 22.56C63.8312 21.472 63.2792 19.984 63.2792 18.096C63.2792 16.896 63.5192 15.832 63.9992 14.904C64.4792 13.976 65.1512 13.256 66.0152 12.744C66.8952 12.232 67.8872 11.976 68.9912 11.976C70.0472 11.976 70.9672 12.208 71.7512 12.672C72.5352 13.136 73.1432 13.792 73.5752 14.64C74.0072 15.488 74.2232 16.488 74.2232 17.64C74.2232 18.328 73.9192 18.672 73.3112 18.672H66.2312C66.3272 19.776 66.6392 20.592 67.1672 21.12C67.6952 21.632 68.4632 21.888 69.4712 21.888C69.9832 21.888 70.4312 21.824 70.8152 21.696C71.2152 21.568 71.6632 21.392 72.1592 21.168C72.6392 20.912 72.9912 20.784 73.2152 20.784ZM69.0632 14.088C68.2472 14.088 67.5912 14.344 67.0952 14.856C66.6152 15.368 66.3272 16.104 66.2312 17.064H71.6552C71.6232 16.088 71.3832 15.352 70.9352 14.856C70.4872 14.344 69.8632 14.088 69.0632 14.088ZM81.7652 11.976C83.3972 11.976 84.6052 12.384 85.3892 13.2C86.1892 14 86.5892 15.224 86.5892 16.872V22.728C86.5892 23.16 86.4612 23.504 86.2052 23.76C85.9492 24 85.5972 24.12 85.1492 24.12C84.7332 24.12 84.3892 23.992 84.1172 23.736C83.8612 23.48 83.7332 23.144 83.7332 22.728V22.2C83.4612 22.824 83.0292 23.312 82.4372 23.664C81.8612 24.016 81.1892 24.192 80.4212 24.192C79.6372 24.192 78.9252 24.032 78.2852 23.712C77.6452 23.392 77.1412 22.952 76.7732 22.392C76.4052 21.832 76.2212 21.208 76.2212 20.52C76.2212 19.656 76.4372 18.976 76.8692 18.48C77.3172 17.984 78.0372 17.624 79.0292 17.4C80.0212 17.176 81.3892 17.064 83.1332 17.064H83.7332V16.512C83.7332 15.728 83.5652 15.16 83.2292 14.808C82.8932 14.44 82.3492 14.256 81.5972 14.256C81.1332 14.256 80.6612 14.328 80.1812 14.472C79.7012 14.6 79.1332 14.792 78.4772 15.048C78.0612 15.256 77.7572 15.36 77.5652 15.36C77.2772 15.36 77.0372 15.256 76.8452 15.048C76.6692 14.84 76.5812 14.568 76.5812 14.232C76.5812 13.96 76.6452 13.728 76.7732 13.536C76.9172 13.328 77.1492 13.136 77.4692 12.96C78.0292 12.656 78.6932 12.416 79.4612 12.24C80.2452 12.064 81.0132 11.976 81.7652 11.976ZM81.0212 22.032C81.8212 22.032 82.4692 21.768 82.9652 21.24C83.4772 20.696 83.7332 20 83.7332 19.152V18.648H83.3012C82.2292 18.648 81.3972 18.696 80.8052 18.792C80.2132 18.888 79.7892 19.056 79.5332 19.296C79.2772 19.536 79.1492 19.864 79.1492 20.28C79.1492 20.792 79.3252 21.216 79.6772 21.552C80.0452 21.872 80.4932 22.032 81.0212 22.032ZM95.7341 21.912C96.5341 21.96 96.9341 22.32 96.9341 22.992C96.9341 23.376 96.7741 23.672 96.4541 23.88C96.1501 24.072 95.7101 24.152 95.1341 24.12L94.4861 24.072C91.7981 23.88 90.4541 22.44 90.4541 19.752V14.52H89.2541C88.8221 14.52 88.4861 14.424 88.2461 14.232C88.0221 14.04 87.9101 13.76 87.9101 13.392C87.9101 13.024 88.0221 12.744 88.2461 12.552C88.4861 12.36 88.8221 12.264 89.2541 12.264H90.4541V10.056C90.4541 9.624 90.5901 9.28 90.8621 9.024C91.1341 8.768 91.5021 8.64 91.9661 8.64C92.4141 8.64 92.7741 8.768 93.0461 9.024C93.3181 9.28 93.4541 9.624 93.4541 10.056V12.264H95.4941C95.9261 12.264 96.2541 12.36 96.4781 12.552C96.7181 12.744 96.8381 13.024 96.8381 13.392C96.8381 13.76 96.7181 14.04 96.4781 14.232C96.2541 14.424 95.9261 14.52 95.4941 14.52H93.4541V19.968C93.4541 21.152 93.9981 21.784 95.0861 21.864L95.7341 21.912ZM105.362 11.976C108.114 11.976 109.49 13.584 109.49 16.8V22.704C109.49 23.152 109.354 23.504 109.082 23.76C108.826 24.016 108.466 24.144 108.002 24.144C107.538 24.144 107.17 24.016 106.898 23.76C106.626 23.504 106.49 23.152 106.49 22.704V16.8C106.49 15.952 106.314 15.336 105.962 14.952C105.626 14.552 105.09 14.352 104.354 14.352C103.49 14.352 102.794 14.624 102.266 15.168C101.754 15.712 101.498 16.44 101.498 17.352V22.704C101.498 23.152 101.362 23.504 101.09 23.76C100.818 24.016 100.45 24.144 99.9855 24.144C99.5215 24.144 99.1535 24.016 98.8815 23.76C98.6255 23.504 98.4975 23.152 98.4975 22.704V8.352C98.4975 7.936 98.6335 7.6 98.9055 7.344C99.1935 7.088 99.5615 6.96 100.01 6.96C100.458 6.96 100.818 7.08 101.09 7.32C101.362 7.56 101.498 7.888 101.498 8.304V13.896C101.898 13.272 102.426 12.8 103.082 12.48C103.754 12.144 104.514 11.976 105.362 11.976ZM121.825 20.784C122.097 20.784 122.313 20.888 122.473 21.096C122.649 21.304 122.737 21.584 122.737 21.936C122.737 22.432 122.441 22.848 121.849 23.184C121.305 23.488 120.689 23.736 120.001 23.928C119.313 24.104 118.657 24.192 118.033 24.192C116.145 24.192 114.649 23.648 113.545 22.56C112.441 21.472 111.889 19.984 111.889 18.096C111.889 16.896 112.129 15.832 112.609 14.904C113.089 13.976 113.761 13.256 114.625 12.744C115.505 12.232 116.497 11.976 117.601 11.976C118.657 11.976 119.577 12.208 120.361 12.672C121.145 13.136 121.753 13.792 122.185 14.64C122.617 15.488 122.833 16.488 122.833 17.64C122.833 18.328 122.529 18.672 121.921 18.672H114.841C114.937 19.776 115.249 20.592 115.777 21.12C116.305 21.632 117.073 21.888 118.081 21.888C118.593 21.888 119.041 21.824 119.425 21.696C119.825 21.568 120.273 21.392 120.769 21.168C121.249 20.912 121.601 20.784 121.825 20.784ZM117.673 14.088C116.857 14.088 116.201 14.344 115.705 14.856C115.225 15.368 114.937 16.104 114.841 17.064H120.265C120.233 16.088 119.993 15.352 119.545 14.856C119.097 14.344 118.473 14.088 117.673 14.088ZM131.839 12.024C132.255 11.992 132.583 12.08 132.823 12.288C133.063 12.496 133.183 12.808 133.183 13.224C133.183 13.656 133.079 13.976 132.871 14.184C132.663 14.392 132.287 14.528 131.743 14.592L131.023 14.664C130.079 14.76 129.383 15.08 128.935 15.624C128.503 16.168 128.287 16.848 128.287 17.664V22.704C128.287 23.168 128.143 23.528 127.855 23.784C127.567 24.024 127.207 24.144 126.775 24.144C126.343 24.144 125.983 24.024 125.695 23.784C125.423 23.528 125.287 23.168 125.287 22.704V13.416C125.287 12.968 125.423 12.624 125.695 12.384C125.983 12.144 126.335 12.024 126.751 12.024C127.167 12.024 127.503 12.144 127.759 12.384C128.015 12.608 128.143 12.936 128.143 13.368V14.328C128.447 13.624 128.895 13.08 129.487 12.696C130.095 12.312 130.767 12.096 131.503 12.048L131.839 12.024ZM135.228 18.768C134.764 18.768 134.412 18.664 134.172 18.456C133.948 18.248 133.836 17.96 133.836 17.592C133.836 17.224 133.948 16.936 134.172 16.728C134.412 16.504 134.764 16.392 135.228 16.392H140.172C140.636 16.392 140.98 16.504 141.204 16.728C141.444 16.936 141.564 17.224 141.564 17.592C141.564 17.96 141.444 18.248 141.204 18.456C140.98 18.664 140.636 18.768 140.172 18.768H135.228ZM151.202 11.976C152.226 11.976 153.13 12.224 153.914 12.72C154.698 13.216 155.306 13.92 155.738 14.832C156.186 15.744 156.41 16.808 156.41 18.024C156.41 19.24 156.186 20.32 155.738 21.264C155.306 22.192 154.69 22.912 153.89 23.424C153.106 23.936 152.21 24.192 151.202 24.192C150.354 24.192 149.594 24.008 148.922 23.64C148.266 23.272 147.762 22.76 147.41 22.104V22.704C147.41 23.136 147.274 23.48 147.002 23.736C146.73 23.992 146.37 24.12 145.922 24.12C145.474 24.12 145.114 23.992 144.842 23.736C144.586 23.48 144.458 23.136 144.458 22.704V8.352C144.458 7.936 144.594 7.6 144.866 7.344C145.154 7.088 145.522 6.96 145.97 6.96C146.418 6.96 146.778 7.08 147.05 7.32C147.322 7.56 147.458 7.888 147.458 8.304V13.968C147.81 13.328 148.314 12.84 148.97 12.504C149.626 12.152 150.37 11.976 151.202 11.976ZM150.41 21.864C151.354 21.864 152.09 21.528 152.618 20.856C153.146 20.184 153.41 19.24 153.41 18.024C153.41 16.824 153.146 15.904 152.618 15.264C152.106 14.624 151.37 14.304 150.41 14.304C149.45 14.304 148.706 14.632 148.178 15.288C147.666 15.928 147.41 16.856 147.41 18.072C147.41 19.288 147.666 20.224 148.178 20.88C148.706 21.536 149.45 21.864 150.41 21.864ZM168.137 12.024C168.601 12.024 168.969 12.152 169.241 12.408C169.513 12.664 169.648 13.008 169.648 13.44V22.752C169.648 23.168 169.505 23.504 169.217 23.76C168.945 24.016 168.585 24.144 168.137 24.144C167.705 24.144 167.361 24.024 167.105 23.784C166.849 23.544 166.721 23.216 166.721 22.8V22.2C166.353 22.84 165.857 23.336 165.233 23.688C164.609 24.024 163.905 24.192 163.121 24.192C160.241 24.192 158.801 22.576 158.801 19.344V13.44C158.801 13.008 158.937 12.664 159.209 12.408C159.481 12.152 159.841 12.024 160.289 12.024C160.753 12.024 161.121 12.152 161.393 12.408C161.665 12.664 161.801 13.008 161.801 13.44V19.368C161.801 20.2 161.969 20.816 162.305 21.216C162.641 21.616 163.169 21.816 163.889 21.816C164.721 21.816 165.385 21.544 165.881 21C166.393 20.44 166.649 19.704 166.649 18.792V13.44C166.649 13.008 166.785 12.664 167.057 12.408C167.329 12.152 167.689 12.024 168.137 12.024ZM182.563 6.96C183.011 6.96 183.379 7.088 183.667 7.344C183.955 7.6 184.099 7.936 184.099 8.352V22.704C184.099 23.136 183.963 23.48 183.691 23.736C183.419 23.992 183.059 24.12 182.611 24.12C182.163 24.12 181.803 23.992 181.531 23.736C181.259 23.48 181.123 23.136 181.123 22.704V22.104C180.771 22.76 180.259 23.272 179.587 23.64C178.931 24.008 178.179 24.192 177.331 24.192C176.323 24.192 175.419 23.936 174.619 23.424C173.835 22.912 173.219 22.192 172.771 21.264C172.339 20.32 172.123 19.24 172.123 18.024C172.123 16.808 172.339 15.744 172.771 14.832C173.219 13.92 173.835 13.216 174.619 12.72C175.403 12.224 176.307 11.976 177.331 11.976C178.179 11.976 178.931 12.152 179.587 12.504C180.243 12.856 180.747 13.352 181.099 13.992V8.304C181.099 7.904 181.227 7.584 181.483 7.344C181.755 7.088 182.115 6.96 182.563 6.96ZM178.123 21.864C179.083 21.864 179.819 21.536 180.331 20.88C180.859 20.224 181.123 19.288 181.123 18.072C181.123 16.856 180.859 15.928 180.331 15.288C179.819 14.632 179.091 14.304 178.147 14.304C177.187 14.304 176.443 14.624 175.915 15.264C175.387 15.904 175.123 16.824 175.123 18.024C175.123 19.24 175.387 20.184 175.915 20.856C176.443 21.528 177.179 21.864 178.123 21.864ZM196.977 6.96C197.425 6.96 197.793 7.088 198.081 7.344C198.369 7.6 198.513 7.936 198.513 8.352V22.704C198.513 23.136 198.377 23.48 198.105 23.736C197.833 23.992 197.473 24.12 197.025 24.12C196.577 24.12 196.217 23.992 195.945 23.736C195.673 23.48 195.537 23.136 195.537 22.704V22.104C195.185 22.76 194.673 23.272 194.001 23.64C193.345 24.008 192.593 24.192 191.745 24.192C190.737 24.192 189.833 23.936 189.033 23.424C188.249 22.912 187.633 22.192 187.185 21.264C186.753 20.32 186.537 19.24 186.537 18.024C186.537 16.808 186.753 15.744 187.185 14.832C187.633 13.92 188.249 13.216 189.033 12.72C189.817 12.224 190.721 11.976 191.745 11.976C192.593 11.976 193.345 12.152 194.001 12.504C194.657 12.856 195.161 13.352 195.513 13.992V8.304C195.513 7.904 195.641 7.584 195.897 7.344C196.169 7.088 196.529 6.96 196.977 6.96ZM192.537 21.864C193.497 21.864 194.233 21.536 194.745 20.88C195.273 20.224 195.537 19.288 195.537 18.072C195.537 16.856 195.273 15.928 194.745 15.288C194.233 14.632 193.505 14.304 192.561 14.304C191.601 14.304 190.857 14.624 190.329 15.264C189.801 15.904 189.537 16.824 189.537 18.024C189.537 19.24 189.801 20.184 190.329 20.856C190.857 21.528 191.593 21.864 192.537 21.864ZM209.783 12.888C209.911 12.6 210.079 12.392 210.287 12.264C210.511 12.12 210.751 12.048 211.007 12.048C211.375 12.048 211.703 12.176 211.991 12.432C212.295 12.672 212.447 12.976 212.447 13.344C212.447 13.52 212.399 13.704 212.303 13.896L205.751 27.624C205.479 28.168 205.055 28.44 204.479 28.44C204.111 28.44 203.783 28.32 203.495 28.08C203.223 27.856 203.087 27.568 203.087 27.216C203.087 27.04 203.135 26.84 203.231 26.616L204.863 23.184L200.399 13.896C200.319 13.736 200.279 13.552 200.279 13.344C200.279 12.976 200.431 12.664 200.735 12.408C201.055 12.152 201.415 12.024 201.815 12.024C202.087 12.024 202.335 12.096 202.559 12.24C202.783 12.368 202.959 12.576 203.087 12.864L206.447 20.28L209.783 12.888Z" fill="white"/>
<path d="M11.2 25C11.6244 25 12.0313 25.1686 12.3314 25.4686C12.6314 25.7687 12.8 26.1757 12.8 26.6C12.8 27.0244 12.6314 27.4313 12.3314 27.7314C12.0313 28.0314 11.6244 28.2 11.2 28.2C10.7757 28.2 10.3687 28.0314 10.0686 27.7314C9.76858 27.4313 9.60001 27.0244 9.60001 26.6C9.60001 26.1757 9.76858 25.7687 10.0686 25.4686C10.3687 25.1686 10.7757 25 11.2 25ZM24.7968 13.8C25.8577 13.8 26.8751 14.2214 27.6252 14.9716C28.3754 15.7217 28.7968 16.7391 28.7968 17.8C28.7968 18.8609 28.3754 19.8783 27.6252 20.6284C26.8751 21.3786 25.8577 21.8 24.7968 21.8L24.7136 21.7968L24.5312 21.8112L23.344 21.8096C23.5232 22.2432 23.6224 22.7184 23.6224 23.2176C23.6284 23.7185 23.5343 24.2156 23.3455 24.6796C23.1567 25.1436 22.8771 25.5652 22.5231 25.9197C22.1691 26.2741 21.7478 26.5543 21.284 26.7436C20.8203 26.933 20.3233 27.0278 19.8224 27.0224C18.2176 27.0224 17.0384 26.312 16.4144 25.1408C16.2719 24.8722 16.2366 24.5595 16.3158 24.2659C16.395 23.9723 16.5827 23.7197 16.8409 23.5591C17.0992 23.3986 17.4088 23.3421 17.7071 23.4011C18.0054 23.4601 18.2702 23.6301 18.448 23.8768L18.608 24.1376C18.8256 24.448 19.184 24.6224 19.824 24.6224C20.0096 24.6278 20.1944 24.595 20.3669 24.5262C20.5394 24.4575 20.696 24.3541 20.827 24.2224C20.958 24.0908 21.0607 23.9338 21.1287 23.761C21.1967 23.5881 21.2286 23.4032 21.2224 23.2176C21.2224 22.5136 20.6432 21.9136 19.872 21.832L19.528 21.8112H4.40001C4.09597 21.8111 3.80331 21.6956 3.58115 21.4881C3.35898 21.2805 3.22389 20.9963 3.20317 20.693C3.18245 20.3897 3.27764 20.0898 3.4695 19.8539C3.66137 19.6181 3.93561 19.4639 4.23681 19.4224L4.40001 19.4112H24.5312L24.608 19.4144L24.7024 19.4032L24.984 19.3888C25.2582 19.3559 25.5192 19.2526 25.7416 19.089C25.9641 18.9253 26.1404 18.7069 26.2534 18.4549C26.3664 18.203 26.4123 17.926 26.3865 17.6511C26.3608 17.3761 26.2643 17.1125 26.1065 16.8859C25.9487 16.6593 25.7349 16.4773 25.486 16.3578C25.237 16.2383 24.9614 16.1852 24.6859 16.2038C24.4103 16.2224 24.1443 16.312 23.9136 16.4638C23.683 16.6157 23.4956 16.8247 23.3696 17.0704L23.2256 17.4016C23.0838 17.6709 22.845 17.8762 22.5575 17.976C22.27 18.0759 21.9553 18.0627 21.6772 17.9393C21.399 17.8159 21.1781 17.5914 21.0592 17.3112C20.9403 17.0311 20.9323 16.7162 21.0368 16.4304C21.3183 15.6594 21.83 14.9935 22.5025 14.523C23.1751 14.0525 23.976 13.8001 24.7968 13.8ZM15.1968 5.79201C16.6242 5.78823 17.9992 6.32968 19.0408 7.30572C20.0824 8.28176 20.7119 9.61871 20.8008 11.0434C20.8897 12.468 20.4311 13.8729 19.5189 14.9708C18.6067 16.0687 17.3096 16.7768 15.8928 16.9504L15.7328 16.9824L15.568 16.992H4.40001C4.09597 16.9919 3.80331 16.8764 3.58115 16.6689C3.35898 16.4613 3.22389 16.1771 3.20317 15.8738C3.18245 15.5705 3.27764 15.2706 3.4695 15.0347C3.66137 14.7989 3.93561 14.6447 4.23681 14.6032L4.40001 14.592H15.1984C15.8313 14.592 16.45 14.4043 16.9762 14.0527C17.5025 13.7011 17.9126 13.2013 18.1548 12.6166C18.397 12.0319 18.4604 11.3885 18.3369 10.7677C18.2135 10.147 17.9087 9.5768 17.4612 9.12927C17.0136 8.68174 16.4434 8.37697 15.8227 8.2535C15.202 8.13003 14.5585 8.1934 13.9738 8.4356C13.3891 8.6778 12.8893 9.08795 12.5377 9.61419C12.1861 10.1404 11.9984 10.7591 11.9984 11.392C11.9984 11.7103 11.872 12.0155 11.6469 12.2405C11.4219 12.4656 11.1167 12.592 10.7984 12.592C10.4802 12.592 10.1749 12.4656 9.94988 12.2405C9.72484 12.0155 9.59841 11.7103 9.59841 11.392C9.59841 9.9068 10.1884 8.48242 11.2386 7.43221C12.2888 6.38201 13.7132 5.79201 15.1984 5.79201H15.1968ZM4.80001 5.80001C5.22436 5.80001 5.63132 5.96858 5.93138 6.26864C6.23144 6.5687 6.40001 6.97567 6.40001 7.40001C6.40001 7.82436 6.23144 8.23133 5.93138 8.53138C5.63132 8.83144 5.22436 9.00001 4.80001 9.00001C4.37567 9.00001 3.9687 8.83144 3.66864 8.53138C3.36858 8.23133 3.20001 7.82436 3.20001 7.40001C3.20001 6.97567 3.36858 6.5687 3.66864 6.26864C3.9687 5.96858 4.37567 5.80001 4.80001 5.80001ZM27.2 4.20001C27.6244 4.20001 28.0313 4.36858 28.3314 4.66864C28.6314 4.9687 28.8 5.37567 28.8 5.80001C28.8 6.22436 28.6314 6.63133 28.3314 6.93138C28.0313 7.23144 27.6244 7.40001 27.2 7.40001C26.7757 7.40001 26.3687 7.23144 26.0686 6.93138C25.7686 6.63133 25.6 6.22436 25.6 5.80001C25.6 5.37567 25.7686 4.9687 26.0686 4.66864C26.3687 4.36858 26.7757 4.20001 27.2 4.20001Z" fill="white"/>
</svg>
