<svg width="26" height="25" viewBox="0 0 26 25" fill="none" xmlns="http://www.w3.org/2000/svg">
<path d="M8.20001 21C8.62436 21 9.03132 21.1686 9.33138 21.4686C9.63144 21.7687 9.80001 22.1757 9.80001 22.6C9.80001 23.0244 9.63144 23.4313 9.33138 23.7314C9.03132 24.0314 8.62436 24.2 8.20001 24.2C7.77567 24.2 7.3687 24.0314 7.06864 23.7314C6.76858 23.4313 6.60001 23.0244 6.60001 22.6C6.60001 22.1757 6.76858 21.7687 7.06864 21.4686C7.3687 21.1686 7.77567 21 8.20001 21ZM21.7968 9.80001C22.8577 9.80001 23.8751 10.2214 24.6252 10.9716C25.3754 11.7217 25.7968 12.7391 25.7968 13.8C25.7968 14.8609 25.3754 15.8783 24.6252 16.6284C23.8751 17.3786 22.8577 17.8 21.7968 17.8L21.7136 17.7968L21.5312 17.8112L20.344 17.8096C20.5232 18.2432 20.6224 18.7184 20.6224 19.2176C20.6284 19.7185 20.5343 20.2156 20.3455 20.6796C20.1567 21.1436 19.8771 21.5652 19.5231 21.9197C19.1691 22.2741 18.7478 22.5543 18.284 22.7436C17.8203 22.933 17.3233 23.0278 16.8224 23.0224C15.2176 23.0224 14.0384 22.312 13.4144 21.1408C13.2719 20.8722 13.2366 20.5595 13.3158 20.2659C13.395 19.9723 13.5827 19.7197 13.8409 19.5591C14.0992 19.3986 14.4088 19.3421 14.7071 19.4011C15.0054 19.4601 15.2702 19.6301 15.448 19.8768L15.608 20.1376C15.8256 20.448 16.184 20.6224 16.824 20.6224C17.0096 20.6278 17.1944 20.595 17.3669 20.5262C17.5394 20.4575 17.696 20.3541 17.827 20.2224C17.958 20.0908 18.0607 19.9338 18.1287 19.761C18.1967 19.5881 18.2286 19.4032 18.2224 19.2176C18.2224 18.5136 17.6432 17.9136 16.872 17.832L16.528 17.8112H1.40001C1.09597 17.8111 0.803307 17.6956 0.581145 17.4881C0.358984 17.2805 0.223894 16.9963 0.203171 16.693C0.182448 16.3897 0.277637 16.0898 0.469504 15.8539C0.661372 15.6181 0.935612 15.4639 1.23681 15.4224L1.40001 15.4112H21.5312L21.608 15.4144L21.7024 15.4032L21.984 15.3888C22.2582 15.3559 22.5192 15.2526 22.7416 15.089C22.9641 14.9253 23.1404 14.7069 23.2534 14.4549C23.3664 14.203 23.4123 13.926 23.3865 13.6511C23.3608 13.3761 23.2643 13.1125 23.1065 12.8859C22.9487 12.6593 22.7349 12.4773 22.486 12.3578C22.237 12.2383 21.9614 12.1852 21.6859 12.2038C21.4103 12.2224 21.1443 12.312 20.9136 12.4638C20.683 12.6157 20.4956 12.8247 20.3696 13.0704L20.2256 13.4016C20.0838 13.6709 19.845 13.8762 19.5575 13.976C19.27 14.0759 18.9553 14.0627 18.6772 13.9393C18.399 13.8159 18.1781 13.5914 18.0592 13.3112C17.9403 13.0311 17.9323 12.7162 18.0368 12.4304C18.3183 11.6594 18.83 10.9935 19.5025 10.523C20.1751 10.0525 20.976 9.80011 21.7968 9.80001ZM12.1968 1.79201C13.6242 1.78823 14.9992 2.32968 16.0408 3.30572C17.0824 4.28176 17.7119 5.61871 17.8008 7.04337C17.8897 8.46803 17.4311 9.87285 16.5189 10.9708C15.6067 12.0687 14.3096 12.7768 12.8928 12.9504L12.7328 12.9824L12.568 12.992H1.40001C1.09597 12.9919 0.803307 12.8764 0.581145 12.6689C0.358984 12.4613 0.223894 12.1771 0.203171 11.8738C0.182448 11.5705 0.277637 11.2706 0.469504 11.0347C0.661372 10.7989 0.935612 10.6447 1.23681 10.6032L1.40001 10.592H12.1984C12.8313 10.592 13.45 10.4043 13.9762 10.0527C14.5025 9.70109 14.9126 9.20132 15.1548 8.6166C15.397 8.03188 15.4604 7.38846 15.3369 6.76772C15.2135 6.14698 14.9087 5.5768 14.4612 5.12927C14.0136 4.68174 13.4434 4.37697 12.8227 4.2535C12.202 4.13003 11.5585 4.1934 10.9738 4.4356C10.3891 4.6778 9.88933 5.08795 9.53771 5.61419C9.18609 6.14043 8.99841 6.75911 8.99841 7.39201C8.99841 7.71027 8.87198 8.0155 8.64694 8.24054C8.4219 8.46558 8.11667 8.59201 7.79841 8.59201C7.48015 8.59201 7.17493 8.46558 6.94988 8.24054C6.72484 8.0155 6.59841 7.71027 6.59841 7.39201C6.59841 5.9068 7.18841 4.48242 8.23861 3.43221C9.28882 2.38201 10.7132 1.79201 12.1984 1.79201H12.1968ZM1.80001 1.80001C2.22436 1.80001 2.63132 1.96858 2.93138 2.26864C3.23144 2.5687 3.40001 2.97567 3.40001 3.40001C3.40001 3.82436 3.23144 4.23133 2.93138 4.53138C2.63132 4.83144 2.22436 5.00001 1.80001 5.00001C1.37567 5.00001 0.968699 4.83144 0.668641 4.53138C0.368583 4.23133 0.200012 3.82436 0.200012 3.40001C0.200012 2.97567 0.368583 2.5687 0.668641 2.26864C0.968699 1.96858 1.37567 1.80001 1.80001 1.80001ZM24.2 0.200012C24.6244 0.200012 25.0313 0.368583 25.3314 0.668641C25.6314 0.9687 25.8 1.37567 25.8 1.80001C25.8 2.22436 25.6314 2.63133 25.3314 2.93138C25.0313 3.23144 24.6244 3.40001 24.2 3.40001C23.7757 3.40001 23.3687 3.23144 23.0686 2.93138C22.7686 2.63133 22.6 2.22436 22.6 1.80001C22.6 1.37567 22.7686 0.9687 23.0686 0.668641C23.3687 0.368583 23.7757 0.200012 24.2 0.200012Z" fill="white"/>
</svg>
